<?xml version="1.0" standalone="no"?>
<!DOCTYPE svg PUBLIC "-//W3C//DTD SVG 20010904//EN"
 "http://www.w3.org/TR/2001/REC-SVG-20010904/DTD/svg10.dtd">
<svg version="1.0" xmlns="http://www.w3.org/2000/svg"
 width="1000.000000pt" height="1000.000000pt" viewBox="0 0 1000.000000 1000.000000"
 preserveAspectRatio="xMidYMid meet">

<g transform="translate(0.000000,1000.000000) scale(0.100000,-0.100000)"
fill="#000000" stroke="none">
<path d="M4630 8710 c-323 -28 -683 -86 -1100 -180 -471 -105 -664 -150 -690
-159 -25 -10 -47 -14 -315 -72 -82 -18 -154 -35 -158 -39 -9 -8 -12 -53 -26
-370 -43 -1006 -40 -1490 13 -2005 8 -77 20 -198 26 -270 104 -1207 563 -2071
1469 -2764 248 -189 622 -417 959 -584 l183 -91 132 53 c173 70 542 252 685
338 62 37 121 73 130 78 219 131 517 378 716 593 527 572 822 1294 926 2269
70 661 84 892 84 1448 0 484 -7 737 -30 1130 -4 66 -8 131 -8 144 -1 24 -10
26 -256 82 -140 32 -300 69 -355 83 -544 139 -1109 251 -1490 296 -203 25
-708 35 -895 20z m63 -409 c70 -27 167 -113 196 -174 70 -144 42 -329 -69
-468 -103 -128 -260 -229 -390 -249 -154 -24 -274 -5 -552 86 -247 80 -370
103 -472 86 -81 -14 -189 -62 -259 -115 -26 -21 -50 -37 -53 -37 -10 0 8 64
31 110 26 51 106 131 180 181 27 18 116 64 197 101 173 79 244 121 317 191 49
48 111 151 111 185 0 23 24 7 44 -28 41 -69 13 -249 -52 -344 -25 -36 -98
-104 -177 -164 l-30 -23 50 7 c61 8 99 26 142 67 l33 31 57 -60 c43 -45 73
-66 116 -82 113 -43 209 -38 285 13 l34 23 -32 7 c-45 10 -98 60 -111 105 -10
34 -9 44 12 86 20 40 36 54 99 89 86 49 111 83 113 152 0 37 -5 50 -22 65 -46
36 -133 13 -210 -57 l-41 -37 0 48 c1 96 65 181 162 216 72 25 209 20 291 -11z
m906 13 c100 -29 170 -120 171 -220 l0 -51 -42 40 c-75 71 -162 96 -209 59
-17 -15 -22 -29 -22 -64 0 -68 26 -104 113 -153 63 -35 79 -49 99 -89 21 -42
22 -52 12 -86 -13 -45 -66 -95 -111 -105 l-32 -7 34 -23 c76 -51 172 -56 285
-13 43 16 73 37 116 82 l57 60 33 -31 c42 -40 81 -59 142 -68 56 -7 56 -8 -30
57 -118 90 -164 160 -191 289 -17 81 -11 142 17 188 19 32 39 41 39 19 0 -34
63 -138 111 -184 79 -75 133 -108 308 -188 86 -40 179 -87 206 -105 74 -50
154 -130 180 -181 23 -46 41 -110 31 -110 -3 0 -27 16 -53 37 -70 53 -178 101
-259 115 -102 17 -222 -5 -474 -87 -282 -91 -397 -109 -550 -85 -164 26 -365
176 -446 332 -28 55 -54 156 -54 213 0 64 28 156 63 207 91 135 291 201 456
152z m-2005 -95 c11 -54 7 -148 -8 -184 -24 -57 -88 -107 -236 -185 -105 -55
-161 -92 -211 -138 -64 -59 -68 -61 -74 -40 -4 13 -32 76 -62 141 -70 148 -77
199 -39 257 25 38 46 45 46 16 0 -8 22 -44 50 -82 27 -37 51 -72 53 -77 1 -5
29 7 62 27 33 19 99 51 146 71 150 63 190 91 224 162 17 34 33 62 36 62 4 1 9
-13 13 -30z m2868 -29 c32 -71 58 -90 226 -165 66 -29 140 -66 163 -81 26 -16
45 -22 47 -16 2 6 26 41 53 78 27 37 49 73 49 80 0 26 28 14 50 -22 34 -53 24
-109 -43 -251 -30 -65 -58 -128 -62 -141 -6 -21 -10 -19 -75 41 -50 47 -104
82 -209 136 -204 106 -251 159 -251 279 0 65 9 122 19 122 3 -1 18 -27 33 -60z
m-3557 -633 c-8 -20 -15 -56 -15 -81 0 -36 6 -50 29 -74 16 -16 43 -35 60 -42
26 -10 30 -17 25 -34 -25 -76 6 -183 69 -244 l34 -33 6 72 c7 88 52 186 101
224 18 14 35 25 38 25 3 0 8 -46 11 -102 3 -57 13 -125 22 -151 10 -26 60
-105 112 -175 219 -293 262 -494 159 -739 -13 -32 -28 -59 -33 -60 -5 -2 -22
29 -38 69 -43 111 -73 167 -126 234 -69 87 -112 123 -272 228 -168 109 -253
194 -313 312 -39 77 -39 77 -39 198 0 106 4 132 28 206 15 47 40 103 55 125
25 36 90 90 99 82 2 -2 -4 -20 -12 -40z m4279 -34 c65 -89 103 -250 93 -387
-5 -66 -13 -94 -43 -154 -58 -115 -141 -196 -324 -317 -221 -146 -300 -237
-375 -428 -21 -53 -43 -96 -48 -94 -5 1 -20 28 -33 60 -104 245 -60 449 160
740 51 69 101 147 111 174 9 26 19 94 22 151 3 56 8 102 11 102 3 0 20 -11 38
-25 49 -37 92 -134 101 -224 l6 -75 40 45 c22 24 46 60 55 79 15 36 20 120 9
155 -6 16 2 25 39 44 71 38 93 107 59 188 -20 46 -20 46 15 28 17 -9 45 -36
64 -62z m-1586 -478 c129 -31 233 -104 310 -220 208 -309 109 -772 -195 -916
-43 -20 -76 -43 -82 -57 -25 -54 -128 -80 -191 -47 -38 20 -68 64 -75 111 -8
51 27 119 75 146 45 25 117 20 155 -10 l28 -22 39 22 c49 28 120 102 146 154
60 118 74 293 32 414 -43 127 -123 220 -229 262 -56 23 -59 23 -628 26 l-573
3 0 -929 0 -929 25 -23 c101 -95 -5 -276 -140 -239 -109 30 -147 150 -75 233
l30 34 0 1001 0 1001 643 0 c531 0 653 -3 705 -15z m-2687 -430 c146 -150 162
-187 178 -407 5 -64 12 -121 15 -127 13 -20 -5 -11 -47 23 -23 19 -89 58 -147
88 -119 61 -159 103 -186 196 -26 87 -9 215 42 338 15 36 17 38 28 19 6 -11
59 -69 117 -130z m4355 50 c22 -64 28 -99 28 -175 1 -85 -2 -101 -27 -152 -33
-68 -75 -103 -180 -153 -43 -20 -100 -54 -127 -76 -27 -21 -51 -39 -54 -39 -3
0 0 15 5 32 5 18 9 62 9 98 1 93 24 208 53 266 15 28 66 89 122 144 53 52 103
108 112 124 8 16 18 24 23 20 5 -5 21 -45 36 -89z m-1723 39 c61 -21 129 -82
157 -141 60 -129 -4 -303 -136 -369 -34 -17 -65 -19 -263 -22 l-225 -3 -32
-28 c-71 -63 -155 -61 -213 4 -56 64 -50 147 14 204 60 52 144 50 195 -4 l23
-25 206 0 c187 0 209 2 238 20 87 53 83 178 -7 214 -35 14 -93 16 -425 16
l-385 0 0 -922 0 -922 32 -33 c41 -43 50 -121 19 -171 -28 -43 -77 -72 -126
-72 -132 0 -194 165 -96 254 l21 19 0 1005 0 1005 479 -7 c394 -5 486 -9 524
-22z m-2315 -313 c89 -71 180 -234 189 -340 7 -75 -8 -124 -62 -207 -25 -37
-45 -73 -45 -79 -1 -17 -39 36 -70 97 -60 115 -82 216 -87 401 -6 193 -7 192
75 128z m3629 -123 c-5 -184 -24 -275 -81 -393 -35 -70 -75 -129 -76 -110 0 6
-20 42 -45 79 -50 76 -65 120 -65 186 1 104 97 286 192 361 81 64 81 64 75
-123z m-3911 -188 c91 -37 117 -52 159 -95 56 -56 127 -187 149 -272 15 -56
14 -58 -13 -44 -9 5 -58 14 -108 20 -130 14 -168 28 -229 84 -94 85 -164 227
-167 337 -2 79 6 86 57 46 24 -18 92 -52 152 -76z m4327 33 c-2 -150 -143
-366 -263 -402 -22 -7 -82 -17 -133 -22 -50 -6 -99 -15 -108 -20 -27 -14 -28
-12 -13 44 23 88 91 213 147 270 44 45 69 60 161 97 60 24 127 58 150 75 23
18 45 29 50 24 5 -5 9 -34 9 -66z m-3790 -280 c24 -186 16 -390 -18 -504 -42
-145 -152 -275 -332 -392 -56 -37 -104 -67 -108 -67 -3 0 6 19 20 43 52 82
124 243 139 307 33 138 10 243 -70 326 -25 25 -43 49 -40 52 4 3 34 0 67 -6
119 -22 168 -90 177 -245 3 -48 9 -84 13 -80 15 15 29 149 28 270 -2 141 13
203 68 286 20 31 40 57 44 57 3 0 9 -21 12 -47z m3096 -3 c57 -84 70 -137 71
-290 0 -138 14 -257 31 -274 5 -6 9 16 9 60 0 149 55 241 158 263 55 12 92 14
92 6 0 -2 -20 -25 -44 -50 -80 -82 -104 -195 -70 -329 16 -62 91 -226 139
-303 14 -24 23 -43 20 -43 -18 0 -214 139 -270 191 -119 112 -172 219 -195
399 -15 117 -2 420 19 420 3 0 21 -22 40 -50z m-2803 -746 c30 -22 49 -66 40
-90 -5 -12 -9 -11 -26 6 -28 28 -81 26 -117 -4 -16 -13 -41 -50 -56 -80 -81
-164 -48 -282 112 -410 38 -31 73 -61 76 -67 16 -25 -89 -89 -186 -112 -27 -6
-49 -15 -49 -20 0 -22 74 -120 111 -147 63 -45 106 -53 252 -47 118 6 128 5
123 -11 -26 -89 -32 -196 -14 -256 11 -37 85 -126 105 -126 5 0 8 62 8 137 0
136 0 139 31 193 50 89 122 132 256 155 l37 6 -44 -86 c-73 -144 -82 -251 -30
-341 23 -39 95 -104 115 -104 4 0 10 17 14 38 3 22 17 51 30 65 88 95 286 -85
351 -318 19 -66 35 -445 19 -445 -5 1 -25 26 -44 58 -19 31 -76 98 -126 149
-82 84 -100 97 -195 142 -106 49 -190 80 -474 171 -256 83 -424 182 -600 355
-362 356 -413 760 -134 1059 84 90 112 111 182 137 71 26 194 23 233 -7z
m2726 -8 c40 -19 80 -52 137 -112 208 -219 245 -489 106 -764 -110 -216 -331
-431 -578 -560 -51 -27 -164 -71 -252 -100 -284 -91 -368 -122 -474 -171 -95
-45 -113 -58 -195 -142 -50 -51 -107 -118 -126 -149 -19 -32 -39 -57 -44 -58
-16 0 0 379 19 445 39 138 118 256 214 317 82 52 153 25 167 -64 4 -21 10 -38
14 -38 20 0 92 65 114 103 53 90 43 199 -30 344 l-43 84 37 -6 c131 -22 207
-68 256 -155 31 -54 31 -57 31 -193 0 -75 3 -137 8 -137 4 0 27 20 51 44 60
59 75 123 58 242 -7 46 -15 90 -18 99 -5 12 11 14 123 8 148 -6 192 2 255 50
35 27 108 126 108 147 0 3 -22 11 -49 17 -61 14 -155 59 -178 85 -20 22 -27
13 110 130 115 99 141 218 77 356 -18 40 -47 84 -63 98 -36 30 -89 32 -117 4
-17 -17 -21 -18 -26 -6 -10 27 12 70 47 94 31 22 42 23 119 20 66 -4 98 -10
142 -32z m-3858 -371 c67 -161 199 -407 297 -555 395 -593 990 -1083 1819
-1499 256 -128 210 -123 396 -46 1035 430 1714 1035 2094 1865 65 142 90 206
152 390 26 80 46 127 42 105 -10 -68 -139 -443 -199 -580 -339 -770 -901
-1329 -1765 -1754 -107 -53 -262 -123 -343 -156 l-148 -59 -167 83 c-566 281
-1004 579 -1356 921 -434 422 -712 867 -895 1434 -65 201 -73 257 -12 81 26
-77 65 -180 85 -230z"/>
<path d="M8734 3482 c-37 -44 -67 -101 -100 -189 -33 -87 -90 -198 -168 -327
-212 -348 -510 -648 -897 -902 -146 -96 -189 -139 -189 -189 0 -30 5 -37 38
-55 20 -11 72 -53 116 -93 l78 -74 -43 -25 c-74 -43 -338 -173 -444 -218 -530
-226 -1103 -363 -1725 -411 -199 -16 -641 -16 -840 0 -664 53 -1272 206 -1834
463 -122 55 -178 84 -314 160 l-53 30 106 101 c100 97 105 104 105 142 0 53
-18 77 -93 121 -79 46 -282 192 -369 265 -109 91 -368 365 -452 479 -122 163
-254 400 -356 638 -23 53 -23 54 -59 47 -20 -4 -39 -11 -42 -17 -3 -5 -28
-107 -54 -226 -55 -251 -110 -451 -129 -470 -15 -15 -89 21 -546 266 l-225
121 -27 -26 -27 -26 33 -51 c17 -28 146 -233 286 -455 l254 -404 -45 -40 c-80
-73 -221 -211 -240 -236 -46 -58 -12 -139 103 -242 40 -36 127 -117 193 -179
297 -278 843 -630 1305 -841 534 -243 1097 -416 1670 -513 1484 -252 3035 -40
4280 584 570 285 925 534 1351 948 129 124 148 155 129 202 -11 27 -258 281
-280 288 -6 2 -10 9 -10 16 0 7 130 219 289 472 l290 459 -21 23 c-12 12 -28
22 -35 22 -7 0 -177 -83 -377 -185 -199 -102 -367 -185 -372 -185 -5 0 -56
168 -113 373 -58 204 -107 377 -110 384 -4 7 -18 -2 -37 -25z m-7532 -1440
c44 -41 45 -68 2 -58 -19 5 -37 -6 -91 -55 -37 -33 -72 -70 -77 -80 -14 -29
22 -73 62 -77 25 -3 42 8 105 65 59 53 73 71 66 84 -6 11 -4 21 6 29 11 9 22
4 56 -28 29 -27 40 -44 36 -56 -5 -12 -13 -15 -31 -10 -21 5 -39 -6 -106 -65
-74 -65 -84 -71 -125 -71 -37 0 -52 6 -84 35 -74 68 -66 109 44 209 62 56 73
70 65 85 -5 10 -6 21 -3 25 14 14 36 4 75 -32z m7637 -6 c8 -10 9 -16 1 -21
-6 -3 -8 -11 -4 -16 12 -20 210 -112 236 -111 15 1 30 -3 33 -9 9 -14 -64 -89
-86 -89 -20 0 -31 24 -17 38 6 6 2 15 -13 26 -32 22 -38 20 -83 -19 -38 -34
-38 -35 -22 -60 12 -18 23 -24 35 -20 10 3 23 -1 30 -8 9 -12 3 -22 -30 -51
-51 -47 -73 -45 -74 9 -1 55 -90 218 -114 211 -9 -3 -23 -1 -31 5 -12 8 -3 20
50 69 35 33 67 60 71 60 4 0 12 -6 18 -14z m-7401 -204 l43 -37 -36 -104 c-19
-58 -35 -108 -35 -112 0 -4 26 20 58 53 31 33 56 63 55 67 -1 3 -5 14 -8 23
-14 35 23 31 69 -7 49 -40 54 -72 9 -60 -20 5 -38 -9 -123 -97 l-98 -103 -23
22 -23 23 32 109 c17 60 35 117 39 127 4 10 -23 -13 -60 -51 -56 -59 -66 -74
-61 -97 8 -42 -13 -43 -62 -3 -48 40 -52 60 -12 60 18 0 45 22 103 83 64 69
75 85 65 97 -10 12 -10 18 0 30 17 20 19 20 68 -23z m7197 6 c14 -6 25 -14 25
-18 0 -15 -26 -30 -52 -30 -36 0 -68 -32 -68 -69 0 -33 33 -85 73 -115 53 -39
147 -17 147 35 0 24 -33 42 -49 26 -8 -8 -15 -7 -27 5 -15 15 -12 19 36 57 54
43 75 45 67 5 -2 -15 5 -36 19 -55 21 -29 22 -34 10 -58 -27 -52 -93 -91 -154
-91 -47 0 -122 46 -152 94 -50 82 -4 190 97 225 1 1 14 -4 28 -11z m-221 -183
c26 -20 5 -45 -39 -45 -25 0 -39 -7 -55 -27 -36 -46 -11 -112 60 -160 43 -30
82 -29 117 1 23 21 26 28 17 43 -6 10 -23 18 -37 18 -54 0 -52 21 4 59 47 32
55 34 68 21 12 -11 12 -18 3 -27 -9 -9 -7 -19 10 -45 25 -42 17 -68 -37 -109
-51 -38 -130 -45 -178 -15 -56 34 -90 87 -95 146 -4 45 -1 55 24 84 31 37 81
71 104 71 8 -1 24 -7 34 -15z m-6713 -27 c24 -17 50 -38 57 -45 7 -7 33 -25
58 -39 24 -14 44 -30 44 -34 0 -13 -23 -25 -42 -22 -13 3 -23 -16 -43 -85 -15
-48 -28 -94 -30 -100 -7 -21 3 -16 68 34 97 73 108 84 96 99 -12 15 -4 34 14
34 7 0 35 -16 62 -35 28 -18 84 -52 125 -73 110 -58 124 -71 111 -104 -12 -32
-31 -29 -55 8 -14 21 -74 60 -80 52 -54 -76 -54 -81 4 -94 32 -7 56 -19 53
-28 -2 -3 -3 -17 -3 -31 0 -32 -29 -34 -56 -4 -10 12 -31 27 -45 35 -25 12
-28 12 -41 -9 -42 -63 -41 -65 1 -87 22 -11 54 -20 70 -20 35 0 61 -9 61 -20
0 -5 -13 -18 -30 -30 l-29 -21 -106 57 c-76 41 -105 61 -103 73 2 9 13 16 26
16 20 1 44 33 135 181 9 15 -32 57 -49 50 -7 -3 -63 -41 -123 -86 -61 -44
-119 -80 -128 -80 -10 0 -27 7 -37 15 -19 14 -18 18 21 153 36 125 38 141 25
160 -8 12 -22 22 -31 22 -9 0 -47 -38 -84 -84 -55 -69 -67 -89 -62 -109 10
-40 -13 -42 -66 -6 -54 37 -61 65 -17 62 22 -1 37 11 85 70 87 107 87 106 73
122 -13 16 -5 35 14 35 7 0 33 -14 57 -32z m6504 -98 c4 -6 1 -17 -5 -25 -13
-16 -16 -11 73 -138 39 -56 67 -104 63 -112 -13 -36 -51 -27 -166 39 -62 36
-114 66 -116 66 -2 0 21 -35 51 -77 44 -63 59 -77 81 -78 44 0 38 -21 -16 -54
-40 -25 -55 -29 -65 -21 -11 9 -11 16 -3 29 9 15 0 33 -51 107 -46 66 -68 89
-85 90 -26 1 -46 11 -46 24 0 10 84 60 100 60 7 0 55 -25 108 -56 54 -31 101
-59 106 -62 4 -2 -14 27 -40 66 -40 58 -53 71 -74 69 -43 -4 -36 28 12 57 47
28 63 32 73 16z m-280 -170 c3 -5 0 -18 -6 -28 -10 -16 -3 -33 46 -115 46 -77
61 -96 78 -94 13 1 23 -5 25 -15 2 -12 -12 -25 -47 -43 -28 -14 -55 -25 -60
-25 -13 0 -24 34 -12 38 20 7 10 37 -43 122 -36 58 -59 86 -76 90 -39 9 -34
28 17 54 53 28 69 31 78 16z m-5564 -135 c94 -48 117 -74 104 -122 -7 -30 -44
-63 -69 -63 -43 0 -47 -10 -32 -94 12 -67 11 -78 -1 -83 -24 -9 -39 18 -64
115 -13 51 -28 91 -33 89 -6 -2 -20 -20 -31 -39 -18 -35 -19 -37 -2 -56 15
-17 16 -21 3 -31 -21 -18 -143 44 -126 64 6 8 21 15 32 17 15 2 37 32 74 98
45 80 51 97 40 110 -14 16 -11 40 5 40 5 0 50 -20 100 -45z m5334 14 c4 -5 0
-18 -9 -28 -16 -17 -13 -25 44 -120 l62 -102 31 20 c18 11 37 29 44 42 25 47
63 41 63 -10 0 -23 -11 -32 -93 -73 -52 -27 -99 -48 -105 -48 -18 0 -23 18
-11 37 9 15 1 35 -47 115 -50 83 -62 96 -80 92 -14 -4 -23 0 -28 12 -8 20 -12
16 49 47 56 29 71 32 80 16z m-206 -125 c-12 -15 -5 -25 75 -100 57 -55 96
-84 111 -84 13 0 25 -7 29 -15 4 -11 -10 -22 -51 -41 -31 -13 -63 -22 -70 -20
-15 6 -18 36 -3 36 16 0 11 26 -8 44 -18 15 -22 15 -70 -5 -50 -21 -62 -38
-44 -65 4 -7 16 -13 27 -15 39 -8 29 -38 -20 -59 -26 -11 -53 -20 -61 -20 -16
0 -19 31 -5 45 6 6 4 45 -5 100 -20 130 -21 133 -47 137 -43 6 -23 33 53 69
63 31 77 35 89 23 12 -11 12 -15 0 -30z m-4842 -23 c50 -23 81 -64 64 -85 -16
-20 -45 -9 -70 25 -25 34 -66 37 -84 8 -8 -14 0 -29 41 -75 59 -66 65 -97 29
-139 -34 -41 -93 -44 -162 -11 -55 28 -75 56 -61 91 8 23 18 19 64 -25 43 -42
60 -47 93 -30 29 16 23 42 -17 81 -54 51 -68 84 -53 120 23 57 84 72 156 40z
m182 -73 c56 -23 65 -48 21 -58 -19 -4 -35 -27 -71 -100 -42 -85 -45 -97 -32
-112 17 -19 10 -38 -13 -38 -20 0 -114 40 -114 49 1 15 17 29 39 32 20 3 33
22 70 102 35 77 42 100 31 107 -14 8 -7 40 8 40 5 0 33 -10 61 -22z m4423 -28
c18 -19 28 -37 25 -48 -2 -9 -6 -23 -8 -31 -2 -9 5 -17 16 -19 50 -10 83 -69
64 -114 -13 -32 -49 -53 -154 -93 -80 -30 -71 -29 -79 -9 -4 10 0 21 9 28 14
10 10 23 -28 111 -35 80 -48 100 -68 105 -15 4 -24 13 -24 25 0 14 18 25 75
46 100 37 134 37 172 -1z m-4303 -23 c25 -21 130 -57 166 -57 43 0 51 -13 28
-45 -22 -30 -36 -31 -73 -3 -16 12 -31 20 -33 17 -2 -2 -21 -48 -43 -102 -35
-90 -37 -100 -21 -108 18 -11 23 -34 8 -43 -8 -5 -108 25 -131 39 -16 10 1 34
28 37 22 3 31 15 64 97 41 101 39 113 -12 110 -58 -3 -65 9 -28 48 25 27 26
27 47 10z m3996 -51 c44 -19 70 -67 54 -99 -6 -12 -18 -30 -26 -39 -14 -15 -8
-21 58 -64 92 -58 87 -53 66 -69 -16 -12 -31 -7 -117 38 -54 29 -101 49 -104
46 -4 -4 1 -25 10 -48 12 -32 22 -41 39 -41 31 0 42 -20 21 -36 -30 -22 -116
-38 -129 -25 -9 10 -8 16 7 26 18 14 17 18 -20 119 -36 98 -41 106 -65 106
-47 0 -49 -17 -17 -120 27 -90 28 -97 14 -128 -32 -67 -136 -95 -197 -52 -23
17 -35 41 -59 120 -26 83 -34 99 -53 102 -42 6 -24 32 37 50 32 10 62 15 67
12 14 -8 10 -32 -7 -42 -14 -8 -13 -19 13 -103 25 -81 33 -95 56 -103 32 -12
75 1 90 26 17 26 -40 208 -64 208 -21 0 -35 18 -23 30 5 5 32 14 59 21 28 6
59 16 70 20 15 7 161 53 183 58 1 1 18 -5 37 -13z m-3587 -78 c15 -13 -2 -38
-24 -38 -21 0 -20 -223 1 -240 17 -14 20 -36 5 -45 -9 -5 -99 17 -120 30 -15
9 0 35 21 35 15 0 19 7 19 33 0 32 -3 34 -52 46 -50 13 -52 13 -71 -10 -17
-22 -17 -24 -2 -36 19 -13 14 -43 -7 -43 -7 0 -33 6 -58 14 -50 15 -63 46 -23
56 13 3 50 42 89 94 62 83 65 90 53 113 -11 20 -11 26 0 33 14 8 147 -25 169
-42z m270 -75 c31 -23 36 -56 9 -61 -9 -2 -31 8 -48 22 -36 31 -60 33 -83 7
-15 -17 -15 -19 1 -38 10 -11 39 -36 66 -57 37 -30 47 -43 47 -67 0 -90 -96
-124 -204 -72 -38 18 -57 56 -38 75 8 8 25 2 58 -21 56 -37 87 -39 109 -8 17
24 23 17 -84 108 -40 34 -41 72 -3 112 25 27 32 28 85 25 37 -3 67 -11 85 -25z
m2752 -8 c74 -38 65 -144 -13 -160 -75 -17 -77 -19 -64 -67 10 -32 19 -44 37
-48 14 -3 26 -13 28 -22 4 -21 -123 -47 -141 -29 -9 10 -8 16 7 26 18 14 18
17 2 82 -35 141 -36 144 -62 153 -13 5 -24 16 -24 25 0 16 12 20 121 40 41 7
75 14 77 14 2 1 16 -6 32 -14z m-2337 -66 c82 -19 112 -89 63 -146 -23 -26
-28 -28 -95 -25 -68 2 -71 1 -71 -20 0 -13 -3 -33 -6 -45 -4 -16 0 -23 15 -28
12 -4 21 -15 21 -27 0 -19 -4 -20 -57 -13 -74 9 -99 21 -82 41 6 8 17 14 24
14 8 0 20 38 33 108 l21 107 -22 17 c-17 13 -19 19 -9 31 13 15 50 12 165 -14z
m1837 -28 c0 -10 -7 -21 -15 -25 -22 -8 85 -221 114 -229 28 -7 27 -35 -1 -41
-79 -16 -109 -16 -115 0 -4 11 1 22 12 30 16 12 17 17 6 40 -11 25 -14 26 -64
20 -28 -4 -55 -13 -59 -19 -14 -22 -8 -46 13 -52 12 -4 19 -14 17 -23 -4 -24
-116 -41 -129 -21 -6 10 -2 19 12 31 14 12 26 45 40 114 23 115 24 134 5 134
-19 0 -31 19 -19 31 9 9 100 25 156 28 20 1 27 -4 27 -18z m-1606 -2 c100 -13
116 -20 116 -55 0 -33 -15 -38 -47 -15 -16 10 -44 22 -64 25 -35 6 -37 5 -43
-25 -11 -58 -10 -59 49 -59 50 0 56 -2 65 -26 20 -50 21 -50 -88 -26 -46 10
-44 13 -55 -61 -5 -33 19 -43 85 -33 103 15 117 8 76 -37 l-23 -25 -115 15
c-63 9 -119 20 -125 25 -7 6 -1 16 15 30 21 17 27 36 41 124 15 102 15 104 -4
117 -22 15 -16 37 10 37 9 0 57 -5 107 -11z m300 -28 c47 -6 64 -13 82 -35 13
-15 24 -38 24 -52 0 -25 -41 -76 -69 -85 -10 -4 -1 -25 35 -78 39 -59 45 -74
33 -82 -8 -5 -17 -9 -20 -9 -3 0 -36 38 -74 85 -37 47 -72 85 -77 85 -4 0 -8
-10 -8 -22 0 -13 -3 -33 -6 -45 -5 -17 0 -25 20 -34 26 -12 34 -33 17 -43 -4
-3 -38 -3 -75 1 -54 5 -66 9 -66 23 0 10 9 20 19 23 16 4 20 17 25 83 4 44 8
94 11 113 3 26 0 34 -15 38 -11 3 -20 14 -20 24 0 16 7 19 53 18 28 0 79 -4
111 -8z m975 -6 c32 -16 56 -64 46 -94 -3 -11 -19 -31 -35 -44 l-28 -24 54
-61 c57 -64 63 -76 39 -86 -10 -3 -44 21 -97 69 -44 41 -85 75 -91 75 -5 0 -7
-10 -3 -22 3 -13 6 -35 6 -50 0 -20 6 -27 23 -30 14 -2 22 -10 22 -23 0 -18
-8 -20 -72 -23 -60 -2 -73 0 -73 12 0 9 8 20 19 25 20 11 20 5 5 165 -5 57 -9
69 -25 73 -12 3 -19 12 -17 22 5 27 181 40 227 16z m-252 -12 c4 -11 -1 -22
-15 -31 -20 -13 -22 -23 -22 -117 0 -94 2 -104 22 -117 14 -10 19 -20 15 -32
-10 -26 -130 -19 -135 7 -3 12 4 20 17 24 20 5 21 12 21 118 0 104 -1 113 -20
118 -11 3 -20 1 -20 -3 0 -5 -8 -10 -17 -12 -13 -2 -28 -38 -59 -138 l-41
-135 -38 0 -39 0 -20 79 -19 80 -26 -80 -26 -79 -35 3 c-19 2 -36 5 -37 6 -1
1 -18 60 -37 131 -26 95 -41 134 -57 146 -34 25 -15 39 57 39 57 0 64 -2 64
-20 0 -10 -7 -23 -16 -28 -16 -9 -15 -17 6 -103 l23 -93 29 92 29 93 -22 18
c-33 27 -16 41 52 41 47 0 61 -4 66 -17 4 -11 -1 -21 -14 -30 l-20 -13 21 -90
c12 -49 23 -90 26 -90 6 0 51 158 50 178 0 6 -7 12 -15 12 -8 0 -15 9 -15 20
0 18 7 20 64 20 36 0 68 5 71 10 3 6 33 10 66 10 47 0 61 -4 66 -17z"/>
<path d="M8800 1946 c0 -11 44 -96 50 -96 4 0 16 10 28 23 l21 22 -49 28 c-28
16 -50 26 -50 23z"/>
<path d="M2306 1155 c-24 -44 -13 -58 46 -59 40 -1 43 1 46 26 3 22 -3 32 -30
48 -18 11 -35 20 -38 20 -3 0 -14 -16 -24 -35z"/>
<path d="M7434 1016 c3 -27 8 -51 10 -53 2 -2 18 2 35 9 l32 13 -42 40 -42 40
7 -49z"/>
<path d="M7133 960 c-27 -11 -28 -21 -7 -61 12 -24 19 -29 37 -23 28 8 57 34
57 50 0 18 -29 44 -48 43 -9 0 -27 -4 -39 -9z"/>
<path d="M7195 838 c-16 -6 -31 -12 -32 -13 -2 -1 5 -21 14 -44 15 -38 19 -42
42 -36 42 10 71 34 71 58 0 45 -33 57 -95 35z"/>
<path d="M6837 863 c-13 -3 -16 -10 -12 -21 4 -10 11 -29 17 -44 9 -26 11 -26
46 -14 93 32 46 106 -51 79z"/>
<path d="M3220 760 c-18 -23 -31 -42 -29 -44 2 -2 19 -7 37 -11 l32 -7 0 51
c0 28 -2 51 -4 51 -2 0 -19 -18 -36 -40z"/>
<path d="M6283 713 c-26 -5 -28 -16 -12 -61 10 -28 14 -31 37 -26 62 15 80 45
46 78 -15 16 -28 17 -71 9z"/>
<path d="M3966 627 c-10 -50 -7 -56 29 -63 41 -7 65 8 65 41 0 28 -16 41 -57
47 -28 4 -32 1 -37 -25z"/>
<path d="M5786 583 c-2 -10 -8 -33 -11 -52 l-7 -34 33 7 c18 3 34 8 36 10 5 5
-35 86 -42 86 -2 0 -6 -8 -9 -17z"/>
<path d="M4507 553 c-5 -48 -2 -53 34 -53 43 0 69 17 69 45 0 28 -26 45 -68
45 -27 0 -30 -4 -35 -37z"/>
<path d="M5424 568 c3 -13 6 -33 6 -45 0 -26 9 -27 63 -12 29 8 37 15 37 32 0
34 -19 47 -68 47 -41 0 -44 -2 -38 -22z"/>
</g>
</svg>
